<mxfile host="Electron" modified="2024-06-23T07:16:47.426Z" agent="Mozilla/5.0 (Windows NT 10.0; Win64; x64) AppleWebKit/537.36 (KHTML, like Gecko) draw.io/24.0.4 Chrome/120.0.6099.109 Electron/28.1.0 Safari/537.36" etag="MLeuKaLcpo0qug2P7mDT" version="24.0.4" type="device">
  <diagram name="Page-1" id="Ds3k4Kf4d_xNviTWVnub">
    <mxGraphModel dx="1434" dy="836" grid="1" gridSize="10" guides="1" tooltips="1" connect="1" arrows="1" fold="1" page="1" pageScale="1" pageWidth="850" pageHeight="1100" math="0" shadow="0">
      <root>
        <mxCell id="0" />
        <mxCell id="1" parent="0" />
        <mxCell id="BrrRLKavTPzTxeu49M61-23" value="" style="rounded=1;whiteSpace=wrap;html=1;dashed=1;" vertex="1" parent="1">
          <mxGeometry x="620" y="200" width="200" height="370" as="geometry" />
        </mxCell>
        <mxCell id="BrrRLKavTPzTxeu49M61-21" value="" style="rounded=1;whiteSpace=wrap;html=1;dashed=1;" vertex="1" parent="1">
          <mxGeometry x="203" y="216" width="380" height="180" as="geometry" />
        </mxCell>
        <mxCell id="BrrRLKavTPzTxeu49M61-18" value="" style="whiteSpace=wrap;html=1;aspect=fixed;rounded=1;glass=0;shadow=0;textShadow=0;dashed=1;" vertex="1" parent="1">
          <mxGeometry x="190.32999999999998" y="490" width="190" height="190" as="geometry" />
        </mxCell>
        <mxCell id="BrrRLKavTPzTxeu49M61-2" value="" style="whiteSpace=wrap;html=1;aspect=fixed;" vertex="1" parent="1">
          <mxGeometry x="245.67" y="553" width="80" height="80" as="geometry" />
        </mxCell>
        <mxCell id="BrrRLKavTPzTxeu49M61-1" value="" style="image;aspect=fixed;html=1;points=[];align=center;fontSize=12;image=img/lib/azure2/general/Load_Test.svg;" vertex="1" parent="1">
          <mxGeometry x="251.67" y="560" width="68" height="66" as="geometry" />
        </mxCell>
        <mxCell id="BrrRLKavTPzTxeu49M61-12" style="edgeStyle=orthogonalEdgeStyle;rounded=0;orthogonalLoop=1;jettySize=auto;html=1;fontSize=12;strokeWidth=2;" edge="1" parent="1" source="BrrRLKavTPzTxeu49M61-3" target="BrrRLKavTPzTxeu49M61-4">
          <mxGeometry relative="1" as="geometry" />
        </mxCell>
        <mxCell id="BrrRLKavTPzTxeu49M61-3" value=".NET XUnit" style="text;strokeColor=none;align=center;fillColor=none;html=1;verticalAlign=middle;whiteSpace=wrap;rounded=0;fontSize=16;fontStyle=1" vertex="1" parent="1">
          <mxGeometry x="240.67" y="521" width="90" height="40" as="geometry" />
        </mxCell>
        <mxCell id="BrrRLKavTPzTxeu49M61-4" value="" style="image;aspect=fixed;html=1;points=[];align=center;fontSize=12;image=img/lib/azure2/containers/Kubernetes_Services.svg;" vertex="1" parent="1">
          <mxGeometry x="240" y="280" width="90.67" height="80" as="geometry" />
        </mxCell>
        <mxCell id="BrrRLKavTPzTxeu49M61-5" value="Selenium Grid" style="text;strokeColor=none;align=center;fillColor=none;html=1;verticalAlign=middle;whiteSpace=wrap;rounded=0;fontSize=16;fontStyle=1" vertex="1" parent="1">
          <mxGeometry x="240.67000000000002" y="240" width="90" height="40" as="geometry" />
        </mxCell>
        <mxCell id="BrrRLKavTPzTxeu49M61-6" value="" style="image;aspect=fixed;html=1;points=[];align=center;fontSize=12;image=img/lib/azure2/other/Worker_Container_App.svg;" vertex="1" parent="1">
          <mxGeometry x="481" y="294" width="68" height="66" as="geometry" />
        </mxCell>
        <mxCell id="BrrRLKavTPzTxeu49M61-7" value="Nginx Proxy" style="text;strokeColor=none;align=center;fillColor=none;html=1;verticalAlign=middle;whiteSpace=wrap;rounded=0;fontSize=16;fontStyle=1" vertex="1" parent="1">
          <mxGeometry x="470" y="237" width="90" height="40" as="geometry" />
        </mxCell>
        <mxCell id="BrrRLKavTPzTxeu49M61-10" value="" style="image;aspect=fixed;html=1;points=[];align=center;fontSize=12;image=img/lib/azure2/containers/App_Services.svg;" vertex="1" parent="1">
          <mxGeometry x="680" y="280" width="80" height="80" as="geometry" />
        </mxCell>
        <mxCell id="BrrRLKavTPzTxeu49M61-11" value="" style="image;aspect=fixed;html=1;points=[];align=center;fontSize=12;image=img/lib/azure2/containers/App_Services.svg;" vertex="1" parent="1">
          <mxGeometry x="680" y="440" width="80" height="80" as="geometry" />
        </mxCell>
        <mxCell id="BrrRLKavTPzTxeu49M61-13" style="edgeStyle=orthogonalEdgeStyle;rounded=0;orthogonalLoop=1;jettySize=auto;html=1;entryX=-0.015;entryY=0.394;entryDx=0;entryDy=0;entryPerimeter=0;strokeWidth=2;" edge="1" parent="1" source="BrrRLKavTPzTxeu49M61-4" target="BrrRLKavTPzTxeu49M61-6">
          <mxGeometry relative="1" as="geometry" />
        </mxCell>
        <mxCell id="BrrRLKavTPzTxeu49M61-14" style="edgeStyle=orthogonalEdgeStyle;rounded=0;orthogonalLoop=1;jettySize=auto;html=1;entryX=-0.037;entryY=0.588;entryDx=0;entryDy=0;entryPerimeter=0;strokeWidth=2;" edge="1" parent="1" source="BrrRLKavTPzTxeu49M61-6" target="BrrRLKavTPzTxeu49M61-10">
          <mxGeometry relative="1" as="geometry" />
        </mxCell>
        <mxCell id="BrrRLKavTPzTxeu49M61-15" style="edgeStyle=orthogonalEdgeStyle;rounded=0;orthogonalLoop=1;jettySize=auto;html=1;entryX=0;entryY=0.5;entryDx=0;entryDy=0;entryPerimeter=0;strokeWidth=2;" edge="1" parent="1" source="BrrRLKavTPzTxeu49M61-6" target="BrrRLKavTPzTxeu49M61-11">
          <mxGeometry relative="1" as="geometry">
            <Array as="points">
              <mxPoint x="515" y="480" />
            </Array>
          </mxGeometry>
        </mxCell>
        <mxCell id="BrrRLKavTPzTxeu49M61-16" value="Frontend" style="text;strokeColor=none;align=center;fillColor=none;html=1;verticalAlign=middle;whiteSpace=wrap;rounded=0;fontSize=16;fontStyle=1" vertex="1" parent="1">
          <mxGeometry x="675" y="240" width="90" height="40" as="geometry" />
        </mxCell>
        <mxCell id="BrrRLKavTPzTxeu49M61-17" value="Backend" style="text;strokeColor=none;align=center;fillColor=none;html=1;verticalAlign=middle;whiteSpace=wrap;rounded=0;fontSize=16;fontStyle=1" vertex="1" parent="1">
          <mxGeometry x="675" y="400" width="90" height="40" as="geometry" />
        </mxCell>
        <mxCell id="BrrRLKavTPzTxeu49M61-19" value="CI / CD" style="text;strokeColor=none;align=center;fillColor=none;html=1;verticalAlign=middle;whiteSpace=wrap;rounded=0;fontSize=16;fontStyle=1" vertex="1" parent="1">
          <mxGeometry x="177.99999999999997" y="455" width="90" height="40" as="geometry" />
        </mxCell>
        <mxCell id="BrrRLKavTPzTxeu49M61-22" value="Azure Container Apps" style="text;strokeColor=none;align=center;fillColor=none;html=1;verticalAlign=middle;whiteSpace=wrap;rounded=0;fontSize=16;fontStyle=1" vertex="1" parent="1">
          <mxGeometry x="203" y="170" width="137" height="40" as="geometry" />
        </mxCell>
        <mxCell id="BrrRLKavTPzTxeu49M61-24" value="The World Wide Web" style="text;strokeColor=none;align=center;fillColor=none;html=1;verticalAlign=middle;whiteSpace=wrap;rounded=0;fontSize=16;fontStyle=1" vertex="1" parent="1">
          <mxGeometry x="628" y="160" width="137" height="40" as="geometry" />
        </mxCell>
      </root>
    </mxGraphModel>
  </diagram>
</mxfile>
